<svg xmlns="http://www.w3.org/2000/svg" viewBox="0 0 1024 1024" width="120" height="120">
  <defs>
    <linearGradient id="a" x1="0%" y1="0%" x2="100%" y2="100%">
      <stop offset="0%" style="stop-color:#1877f2"/>
      <stop offset="100%" style="stop-color:#42a5f5"/>
    </linearGradient>
  </defs>
  <circle cx="512" cy="512" r="512" fill="url(#a)"/>
  <path d="M682.7 511.9c0-94.7-76.8-171.5-171.5-171.5s-171.5 76.8-171.5 171.5c0 85.6 62.7 156.7 144.7 169.2v-119.7h-43.6v-49.5h43.6v-37.7c0-43.1 25.7-66.9 64.9-66.9 18.8 0 38.5 3.4 38.5 3.4v42.3h-21.7c-21.4 0-28.1 13.3-28.1 26.9v32.3h47.8l-7.6 49.5h-40.2v119.7c82-12.5 144.7-83.6 144.7-169.2z" fill="#fff"/>
</svg>
