<svg xmlns="http://www.w3.org/2000/svg" viewBox="0 0 448 512" width="120" height="120">
  <path fill="#95BF47" d="M388.32,104.1a4.66,4.66,0,0,0-4.4-4.4c-2,0-37.23-.8-37.23-.8s-21.61-20.82-29.62-28.83V503.2L442.76,472.6a17.19,17.19,0,0,0,5.24-12.29V112.64C448,107.64,393.2,104.1,388.32,104.1ZM288.65,70.47a4.72,4.72,0,0,0-4.23-4.47C281.8,65.88,242.54,65,242.54,65s-39.27.8-41.89.8a4.72,4.72,0,0,0-4.23,4.47v36.2c0,2.64,2.16,4.8,4.8,4.8h82.63c2.64,0,4.8-2.16,4.8-4.8v-36.2Zm-64.06,16.32v7.2c0,2.64-2.16,4.8-4.8,4.8h-9.6c-2.64,0-4.8-2.16-4.8-4.8v-7.2c0-2.64,2.16-4.8,4.8-4.8h9.6C222.43,82,224.59,84.15,224.59,86.79ZM160,65.6h82.4a4.8,4.8,0,0,1,4.8,4.8v36c0,2.65-2.15,4.8-4.8,4.8H160a4.8,4.8,0,0,1-4.8-4.8v-36A4.8,4.8,0,0,1,160,65.6Zm0,0"/>
  <path fill="#5E8E3E" d="M207.06,104.67c0,2.64-2.16,4.8-4.8,4.8h-9.6c-2.64,0-4.8-2.16-4.8-4.8v-7.2c0-2.64,2.16-4.8,4.8-4.8h9.6c2.64,0,4.8,2.16,4.8,4.8v7.2Z"/>
  <rect fill="#95BF47" x="0" y="447.68" width="448" height="64.32"/>
  <circle fill="#FFF" cx="144" cy="286" r="52"/>
  <circle fill="#FFF" cx="304" cy="286" r="52"/>
</svg>
